<mxfile host="app.diagrams.net" agent="Mozilla/5.0 (Windows NT 10.0; Win64; x64) AppleWebKit/537.36 (KHTML, like Gecko) Chrome/137.0.0.0 Safari/537.36" version="27.1.5" pages="2">
  <diagram name="Page-1" id="gWxBvABrIyjxBBw7NVr2">
    <mxGraphModel dx="2066" dy="1145" grid="1" gridSize="10" guides="1" tooltips="1" connect="1" arrows="1" fold="1" page="1" pageScale="1" pageWidth="827" pageHeight="1169" math="0" shadow="0">
      <root>
        <mxCell id="0" />
        <mxCell id="1" parent="0" />
        <mxCell id="ZKq54HQdn4_nQn2ZBv9d-5" style="edgeStyle=orthogonalEdgeStyle;rounded=0;orthogonalLoop=1;jettySize=auto;html=1;" edge="1" parent="1" source="ZKq54HQdn4_nQn2ZBv9d-1" target="ZKq54HQdn4_nQn2ZBv9d-4">
          <mxGeometry relative="1" as="geometry" />
        </mxCell>
        <object label="Main Start" odk_type="start" form_id="questionaire" name="s_" id="ZKq54HQdn4_nQn2ZBv9d-1">
          <mxCell style="ellipse;whiteSpace=wrap;html=1;aspect=fixed;fontColor=default;" vertex="1" parent="1">
            <mxGeometry x="40" y="40" width="70" height="70" as="geometry" />
          </mxCell>
        </object>
        <mxCell id="ZKq54HQdn4_nQn2ZBv9d-2" value="Yes" style="edgeStyle=orthogonalEdgeStyle;rounded=0;orthogonalLoop=1;jettySize=auto;html=1;strokeColor=#000000;fillColor=#F8CECC;" edge="1" source="ZKq54HQdn4_nQn2ZBv9d-4" parent="1" target="ZKq54HQdn4_nQn2ZBv9d-6">
          <mxGeometry x="1" y="-20" relative="1" as="geometry">
            <mxPoint x="330" y="70" as="targetPoint" />
            <mxPoint x="-2" y="-10" as="offset" />
          </mxGeometry>
        </mxCell>
        <mxCell id="ZKq54HQdn4_nQn2ZBv9d-3" value="No" style="edgeStyle=orthogonalEdgeStyle;rounded=0;orthogonalLoop=1;jettySize=auto;html=1;strokeColor=#000000;fillColor=#F8CECC;" edge="1" source="ZKq54HQdn4_nQn2ZBv9d-4" parent="1">
          <mxGeometry x="-0.022" relative="1" as="geometry">
            <mxPoint x="240" y="110" as="targetPoint" />
            <Array as="points">
              <mxPoint x="240" y="110" />
            </Array>
            <mxPoint as="offset" />
          </mxGeometry>
        </mxCell>
        <mxCell id="ZKq54HQdn4_nQn2ZBv9d-15" style="edgeStyle=orthogonalEdgeStyle;rounded=0;orthogonalLoop=1;jettySize=auto;html=1;" edge="1" parent="1" source="ZKq54HQdn4_nQn2ZBv9d-4" target="ZKq54HQdn4_nQn2ZBv9d-7">
          <mxGeometry relative="1" as="geometry" />
        </mxCell>
        <UserObject label="Ask a YES/NO question" name="ask_" odk_type="select_one yesno" id="ZKq54HQdn4_nQn2ZBv9d-4">
          <mxCell style="html=1;whiteSpace=wrap;fillColor=none;rounded=0;strokeColor=default;align=left;points=[[0.25,0,0],[0.5,0,0],[0.75,0,0],[1,0.25,0],[1,0.5,0],[1,0.75,0],[0.75,1,0],[0.5,1,0],[0.25,1,0],[0,0.75,0],[0,0.5,0],[0,0.25,0]];shape=mxgraph.bpmn.task2;rectStyle=rounded;size=10;container=1;expand=0;collapsible=0;taskMarker=abstract;" vertex="1" parent="1">
            <mxGeometry x="180" y="50" width="120" height="40" as="geometry" />
          </mxCell>
        </UserObject>
        <object label="Activity end" name="next_" odk_type="activity_end" id="ZKq54HQdn4_nQn2ZBv9d-6">
          <mxCell style="points=[[0.145,0.145,0],[0.5,0,0],[0.855,0.145,0],[1,0.5,0],[0.855,0.855,0],[0.5,1,0],[0.145,0.855,0],[0,0.5,0]];shape=mxgraph.bpmn.event;html=1;verticalLabelPosition=bottom;labelBackgroundColor=#ffffff;verticalAlign=top;align=center;perimeter=ellipsePerimeter;outlineConnect=0;aspect=fixed;outline=end;symbol=terminate2;strokeColor=default;" vertex="1" parent="1">
            <mxGeometry x="470" y="50" width="50" height="50" as="geometry" />
          </mxCell>
        </object>
        <UserObject label="Multiple choice question" name="select_" odk_type="select_multiple" filter="" id="ZKq54HQdn4_nQn2ZBv9d-7">
          <mxCell style="swimlane;fontStyle=0;childLayout=stackLayout;horizontal=1;startSize=30;horizontalStack=0;resizeParent=1;resizeParentMax=0;resizeLast=0;collapsible=0;marginBottom=0;fontColor=#000000;rounded=0;fillColor=none;align=left;strokeColor=#F19C99;" vertex="1" parent="1">
            <mxGeometry x="132" y="160" width="282" height="120" as="geometry" />
          </mxCell>
        </UserObject>
        <UserObject label="Option 1" name="opt_1" odk_type="select_option" id="ZKq54HQdn4_nQn2ZBv9d-8">
          <mxCell style="text;strokeColor=default;fillColor=none;align=left;verticalAlign=middle;spacingLeft=4;spacingRight=4;overflow=hidden;points=[[0,0.5],[1,0.5]];portConstraint=eastwest;rotatable=0;fontColor=#000000;rounded=0;dashed=1;" vertex="1" parent="ZKq54HQdn4_nQn2ZBv9d-7">
            <mxGeometry y="30" width="282" height="30" as="geometry" />
          </mxCell>
        </UserObject>
        <UserObject label="Option 2" name="opt_2" odk_type="select_option" id="ZKq54HQdn4_nQn2ZBv9d-9">
          <mxCell style="text;strokeColor=default;fillColor=none;align=left;verticalAlign=middle;spacingLeft=4;spacingRight=4;overflow=hidden;points=[[0,0.5],[1,0.5]];portConstraint=eastwest;rotatable=0;fontColor=#000000;rounded=0;dashed=1;" vertex="1" parent="ZKq54HQdn4_nQn2ZBv9d-7">
            <mxGeometry y="60" width="282" height="30" as="geometry" />
          </mxCell>
        </UserObject>
        <mxCell id="ZKq54HQdn4_nQn2ZBv9d-22" style="edgeStyle=orthogonalEdgeStyle;rounded=0;orthogonalLoop=1;jettySize=auto;html=1;" edge="1" parent="ZKq54HQdn4_nQn2ZBv9d-7" source="ZKq54HQdn4_nQn2ZBv9d-14">
          <mxGeometry relative="1" as="geometry">
            <mxPoint x="318" y="105" as="targetPoint" />
          </mxGeometry>
        </mxCell>
        <UserObject label="None of the above" name="opt_none" odk_type="select_option" id="ZKq54HQdn4_nQn2ZBv9d-14">
          <mxCell style="text;strokeColor=default;fillColor=none;align=left;verticalAlign=middle;spacingLeft=4;spacingRight=4;overflow=hidden;points=[[0,0.5],[1,0.5]];portConstraint=eastwest;rotatable=0;dashed=1;" vertex="1" parent="ZKq54HQdn4_nQn2ZBv9d-7">
            <mxGeometry y="90" width="282" height="30" as="geometry" />
          </mxCell>
        </UserObject>
        <mxCell id="ZKq54HQdn4_nQn2ZBv9d-19" style="edgeStyle=orthogonalEdgeStyle;rounded=0;orthogonalLoop=1;jettySize=auto;html=1;" edge="1" parent="1" source="ZKq54HQdn4_nQn2ZBv9d-16" target="ZKq54HQdn4_nQn2ZBv9d-18">
          <mxGeometry relative="1" as="geometry" />
        </mxCell>
        <object label="Other page" odk_type="goto" name="lko_" link="data:page/id,euPUgC1oORlwdVP2CvHT" id="ZKq54HQdn4_nQn2ZBv9d-16">
          <mxCell style="shape=offPageConnector;whiteSpace=wrap;html=1;rounded=0;fontSize=12;strokeColor=default;fillColor=none;fontColor=default;" vertex="1" parent="1">
            <mxGeometry x="470" y="200" width="50" height="50" as="geometry" />
          </mxCell>
        </object>
        <mxCell id="ZKq54HQdn4_nQn2ZBv9d-17" style="edgeStyle=orthogonalEdgeStyle;rounded=0;orthogonalLoop=1;jettySize=auto;html=1;" edge="1" parent="1" source="ZKq54HQdn4_nQn2ZBv9d-9" target="ZKq54HQdn4_nQn2ZBv9d-16">
          <mxGeometry relative="1" as="geometry" />
        </mxCell>
        <object label="&lt;font style=&quot;font-size: 12px&quot;&gt;Message to user&lt;/font&gt;" odk_type="note" name="label_" id="ZKq54HQdn4_nQn2ZBv9d-18">
          <mxCell style="rounded=0;whiteSpace=wrap;html=1;align=left;fillColor=none;fontSize=12;strokeColor=default;points=[[0.25,0,0],[0.5,0,0],[0.75,0,0],[1,0.25,0],[1,0.5,0],[1,0.75,0],[0.75,1,0],[0.5,1,0],[0.25,1,0],[0,0.75,0],[0,0.5,0],[0,0.25,0]];shape=mxgraph.bpmn.task2;rectStyle=rounded;size=10;container=1;expand=0;collapsible=0;taskMarker=send;" vertex="1" parent="1">
            <mxGeometry x="600" y="130" width="105" height="60" as="geometry" />
          </mxCell>
        </object>
        <mxCell id="ZKq54HQdn4_nQn2ZBv9d-20" style="edgeStyle=orthogonalEdgeStyle;rounded=0;orthogonalLoop=1;jettySize=auto;html=1;entryX=0.855;entryY=0.855;entryDx=0;entryDy=0;entryPerimeter=0;" edge="1" parent="1" source="ZKq54HQdn4_nQn2ZBv9d-18" target="ZKq54HQdn4_nQn2ZBv9d-6">
          <mxGeometry relative="1" as="geometry" />
        </mxCell>
        <mxCell id="ZKq54HQdn4_nQn2ZBv9d-21" style="edgeStyle=orthogonalEdgeStyle;rounded=0;orthogonalLoop=1;jettySize=auto;html=1;exitX=1;exitY=0.5;exitDx=0;exitDy=0;" edge="1" parent="1" source="ZKq54HQdn4_nQn2ZBv9d-8" target="ZKq54HQdn4_nQn2ZBv9d-18">
          <mxGeometry relative="1" as="geometry" />
        </mxCell>
        <mxCell id="ZKq54HQdn4_nQn2ZBv9d-23" style="edgeStyle=orthogonalEdgeStyle;rounded=0;orthogonalLoop=1;jettySize=auto;html=1;" edge="1" parent="1" source="ZKq54HQdn4_nQn2ZBv9d-14" target="ZKq54HQdn4_nQn2ZBv9d-18">
          <mxGeometry relative="1" as="geometry" />
        </mxCell>
      </root>
    </mxGraphModel>
  </diagram>
  <diagram id="euPUgC1oORlwdVP2CvHT" name="Seite-2">
    <mxGraphModel dx="2066" dy="1145" grid="1" gridSize="10" guides="1" tooltips="1" connect="1" arrows="1" fold="1" page="1" pageScale="1" pageWidth="827" pageHeight="1169" math="0" shadow="0">
      <root>
        <mxCell id="0" />
        <mxCell id="1" parent="0" />
        <mxCell id="ecr5BVr07fwgFIDYk808-3" style="edgeStyle=orthogonalEdgeStyle;rounded=0;orthogonalLoop=1;jettySize=auto;html=1;" edge="1" parent="1" source="ecr5BVr07fwgFIDYk808-1" target="ecr5BVr07fwgFIDYk808-2">
          <mxGeometry relative="1" as="geometry" />
        </mxCell>
        <object label="&lt;span style=&quot;color: rgb(0 , 0 , 0) ; font-family: &amp;quot;helvetica&amp;quot; ; font-size: 12px ; font-style: normal ; font-weight: 400 ; letter-spacing: normal ; text-align: center ; text-indent: 0px ; text-transform: none ; word-spacing: 0px ; background-color: rgb(255 , 255 , 255) ; display: inline ; float: none&quot;&gt;Activity start&lt;/span&gt;" name="lki_" odk_type="activity_start" id="ecr5BVr07fwgFIDYk808-1">
          <mxCell style="points=[[0.145,0.145,0],[0.5,0,0],[0.855,0.145,0],[1,0.5,0],[0.855,0.855,0],[0.5,1,0],[0.145,0.855,0],[0,0.5,0]];shape=mxgraph.bpmn.event;html=1;verticalLabelPosition=bottom;labelBackgroundColor=#ffffff;verticalAlign=top;align=center;perimeter=ellipsePerimeter;outlineConnect=0;aspect=fixed;outline=throwing;symbol=general;" vertex="1" parent="1">
            <mxGeometry x="100" y="140" width="60" height="60" as="geometry" />
          </mxCell>
        </object>
        <mxCell id="ecr5BVr07fwgFIDYk808-5" style="edgeStyle=orthogonalEdgeStyle;rounded=0;orthogonalLoop=1;jettySize=auto;html=1;" edge="1" parent="1" source="ecr5BVr07fwgFIDYk808-2" target="ecr5BVr07fwgFIDYk808-4">
          <mxGeometry relative="1" as="geometry" />
        </mxCell>
        <object label="&lt;font style=&quot;font-size: 12px&quot;&gt;Message to user&lt;/font&gt;" odk_type="note" name="label_" id="ecr5BVr07fwgFIDYk808-2">
          <mxCell style="rounded=0;whiteSpace=wrap;html=1;align=left;fillColor=none;fontSize=12;strokeColor=default;points=[[0.25,0,0],[0.5,0,0],[0.75,0,0],[1,0.25,0],[1,0.5,0],[1,0.75,0],[0.75,1,0],[0.5,1,0],[0.25,1,0],[0,0.75,0],[0,0.5,0],[0,0.25,0]];shape=mxgraph.bpmn.task2;rectStyle=rounded;size=10;container=1;expand=0;collapsible=0;taskMarker=send;" vertex="1" parent="1">
            <mxGeometry x="250" y="140" width="105" height="60" as="geometry" />
          </mxCell>
        </object>
        <object label="Activity end" name="next_" odk_type="activity_end" id="ecr5BVr07fwgFIDYk808-4">
          <mxCell style="points=[[0.145,0.145,0],[0.5,0,0],[0.855,0.145,0],[1,0.5,0],[0.855,0.855,0],[0.5,1,0],[0.145,0.855,0],[0,0.5,0]];shape=mxgraph.bpmn.event;html=1;verticalLabelPosition=bottom;labelBackgroundColor=#ffffff;verticalAlign=top;align=center;perimeter=ellipsePerimeter;outlineConnect=0;aspect=fixed;outline=end;symbol=terminate2;strokeColor=default;" vertex="1" parent="1">
            <mxGeometry x="490" y="140" width="50" height="50" as="geometry" />
          </mxCell>
        </object>
      </root>
    </mxGraphModel>
  </diagram>
</mxfile>
